<?xml version="1.0" standalone="no"?>
<!DOCTYPE svg PUBLIC "-//W3C//DTD SVG 20010904//EN"
 "http://www.w3.org/TR/2001/REC-SVG-20010904/DTD/svg10.dtd">
<svg version="1.0" xmlns="http://www.w3.org/2000/svg"
 width="220.000000pt" height="229.000000pt" viewBox="0 0 220.000000 229.000000"
 preserveAspectRatio="xMidYMid meet">

<g transform="translate(0.000000,229.000000) scale(0.100000,-0.100000)"
fill="#000000" stroke="none">
<path d="M230 1481 c0 -496 2 -570 15 -575 13 -5 15 63 15 569 0 504 -2 575
-15 575 -13 0 -15 -70 -15 -569z"/>
<path d="M338 2021 c-29 -26 -33 -35 -33 -80 0 -41 5 -55 25 -76 50 -50 124
-49 171 1 19 20 24 36 24 76 0 43 -4 53 -33 79 -46 41 -108 41 -154 0z"/>
<path d="M570 1480 c0 -373 3 -570 10 -570 7 0 10 197 10 570 0 373 -3 570
-10 570 -7 0 -10 -197 -10 -570z"/>
<path d="M910 1477 c0 -503 2 -574 15 -574 13 0 15 71 15 574 0 503 -2 573
-15 573 -13 0 -15 -70 -15 -573z"/>
<path d="M1260 1475 c0 -506 2 -574 15 -569 13 5 15 79 15 575 0 499 -2 569
-15 569 -13 0 -15 -71 -15 -575z"/>
<path d="M1610 1481 c0 -369 4 -572 10 -576 7 -4 10 188 10 569 0 377 -3 576
-10 576 -7 0 -10 -196 -10 -569z"/>
<path d="M1940 1480 c0 -500 2 -570 15 -570 13 0 15 70 15 570 0 500 -2 570
-15 570 -13 0 -15 -70 -15 -570z"/>
<path d="M720 1913 c-30 -11 -70 -57 -76 -88 -13 -72 43 -135 122 -135 51 0
104 53 104 104 0 87 -75 146 -150 119z"/>
<path d="M352 1764 c-60 -42 -68 -117 -18 -172 30 -33 40 -37 81 -37 41 0 51
4 81 37 38 42 44 80 19 128 -21 41 -53 60 -100 60 -22 0 -51 -7 -63 -16z"/>
<path d="M1024 1746 c-29 -29 -34 -41 -34 -79 0 -56 27 -92 80 -108 32 -10 44
-9 77 7 114 56 78 214 -50 214 -31 0 -46 -7 -73 -34z"/>
<path d="M699 1627 c-67 -45 -75 -122 -19 -179 23 -23 37 -28 75 -28 40 0 52
5 81 34 26 26 34 42 34 70 0 52 -25 95 -65 112 -47 19 -67 18 -106 -9z"/>
<path d="M1744 1531 c-68 -29 -86 -126 -35 -183 26 -29 36 -33 79 -33 57 0 86
20 109 73 17 41 5 87 -31 121 -26 25 -89 36 -122 22z"/>
<path d="M1024 1476 c-29 -29 -34 -41 -34 -79 0 -132 172 -159 219 -35 27 72
-31 148 -112 148 -31 0 -46 -7 -73 -34z"/>
<path d="M1413 1399 c-47 -14 -73 -52 -73 -110 0 -40 5 -52 31 -78 26 -26 38
-31 79 -31 41 0 53 5 79 31 26 26 31 38 31 81 0 41 -5 54 -29 79 -16 16 -36
29 -44 29 -9 0 -21 2 -29 4 -7 2 -27 0 -45 -5z"/>
<path d="M720 1366 c-39 -12 -80 -66 -80 -103 0 -32 25 -78 52 -97 12 -9 42
-16 66 -16 37 0 50 6 78 34 28 28 34 42 34 75 0 76 -77 131 -150 107z"/>
<path d="M1744 1261 c-38 -17 -64 -60 -64 -108 0 -92 105 -147 175 -91 59 46
64 127 11 177 -26 25 -89 36 -122 22z"/>
<path d="M1043 1221 c-40 -25 -53 -49 -53 -100 0 -99 121 -147 192 -76 66 66
25 180 -69 191 -27 4 -47 -1 -70 -15z"/>
<path d="M1371 1101 c-26 -25 -31 -36 -31 -78 0 -58 19 -90 67 -109 77 -33
153 22 153 109 0 37 -5 51 -31 76 -26 26 -38 31 -79 31 -39 0 -54 -5 -79 -29z"/>
<path d="M230 542 c0 -234 0 -239 23 -260 21 -20 67 -42 88 -42 5 0 9 109 9
270 l0 270 -60 0 -60 0 0 -238z"/>
<path d="M700 633 l0 -148 -20 25 c-10 14 -36 59 -57 100 -60 118 -105 160
-173 160 l-30 0 0 -265 0 -265 60 0 60 0 0 116 c0 136 1 136 80 19 26 -38 56
-78 67 -87 24 -22 86 -48 113 -48 20 0 20 4 18 268 l-3 267 -57 3 -58 3 0
-148z"/>
<path d="M1133 771 c-150 -7 -165 -13 -220 -95 -32 -47 -33 -50 -33 -163 0
-125 12 -163 67 -215 48 -46 92 -58 213 -58 l110 0 0 60 0 60 -100 0 c-128 0
-170 19 -170 76 0 11 25 14 135 14 l135 0 0 60 0 60 -135 0 c-124 0 -135 1
-135 18 0 10 10 28 23 40 21 20 34 22 135 22 l112 0 0 65 c0 36 -1 64 -2 63
-2 -1 -62 -4 -135 -7z"/>
<path d="M1480 769 c-59 -12 -89 -36 -120 -95 -23 -44 -25 -60 -25 -169 0
-103 3 -126 22 -160 47 -89 88 -105 278 -105 l145 0 0 148 c0 185 2 182 -123
182 l-87 0 0 -55 0 -55 55 0 55 0 0 -51 0 -51 -89 4 c-126 4 -131 10 -131 145
0 144 -2 143 180 143 l140 0 0 65 0 65 -127 -1 c-71 -1 -148 -5 -173 -10z"/>
<path d="M1850 555 c0 -272 4 -284 98 -310 l22 -6 0 270 0 271 -60 0 -60 0 0
-225z"/>
</g>
</svg>
